<mxfile host="Electron" agent="Mozilla/5.0 (Windows NT 10.0; Win64; x64) AppleWebKit/537.36 (KHTML, like Gecko) draw.io/26.0.16 Chrome/132.0.6834.196 Electron/34.2.0 Safari/537.36" version="26.0.16">
  <diagram id="R2lEEEUBdFMjLlhIrx00" name="Page-1">
    <mxGraphModel dx="2069" dy="1813" grid="1" gridSize="10" guides="1" tooltips="1" connect="1" arrows="1" fold="1" page="1" pageScale="1" pageWidth="850" pageHeight="1100" math="0" shadow="0" extFonts="Permanent Marker^https://fonts.googleapis.com/css?family=Permanent+Marker">
      <root>
        <mxCell id="0" />
        <mxCell id="1" parent="0" />
        <mxCell id="ZA4WyWoLpMxVYpmelZ8A-572" value="&lt;font style=&quot;font-size: 22px; color: rgb(255, 255, 255);&quot;&gt;products&lt;/font&gt;" style="rounded=0;whiteSpace=wrap;html=1;fillColor=#7D7D7D;strokeColor=#36393d;" parent="1" vertex="1">
          <mxGeometry x="845" y="-23" width="180" height="93" as="geometry" />
        </mxCell>
        <mxCell id="ZA4WyWoLpMxVYpmelZ8A-574" value="&lt;font style=&quot;font-size: 22px; color: rgb(255, 255, 255);&quot;&gt;brands&lt;/font&gt;" style="rounded=0;whiteSpace=wrap;html=1;fillColor=#7D7D7D;strokeColor=#36393d;" parent="1" vertex="1">
          <mxGeometry x="1295" y="57" width="180" height="90" as="geometry" />
        </mxCell>
        <mxCell id="ZA4WyWoLpMxVYpmelZ8A-575" value="&lt;span style=&quot;font-size: 22px;&quot;&gt;&lt;font style=&quot;color: rgb(255, 255, 255);&quot;&gt;categories&lt;/font&gt;&lt;/span&gt;" style="rounded=0;whiteSpace=wrap;html=1;fillColor=#7D7D7D;strokeColor=#36393d;" parent="1" vertex="1">
          <mxGeometry x="1295" y="-73" width="180" height="90" as="geometry" />
        </mxCell>
        <mxCell id="ZA4WyWoLpMxVYpmelZ8A-577" value="" style="edgeStyle=entityRelationEdgeStyle;fontSize=12;html=1;endArrow=ERoneToMany;rounded=0;exitX=0;exitY=0.5;exitDx=0;exitDy=0;" parent="1" source="ZA4WyWoLpMxVYpmelZ8A-579" target="ZA4WyWoLpMxVYpmelZ8A-572" edge="1">
          <mxGeometry width="100" height="100" relative="1" as="geometry">
            <mxPoint x="1080" y="67" as="sourcePoint" />
            <mxPoint x="680" y="252" as="targetPoint" />
            <Array as="points">
              <mxPoint x="1360" y="127" />
              <mxPoint x="900" y="167" />
              <mxPoint x="790" y="162" />
            </Array>
          </mxGeometry>
        </mxCell>
        <mxCell id="ZA4WyWoLpMxVYpmelZ8A-578" value="" style="edgeStyle=entityRelationEdgeStyle;fontSize=12;html=1;endArrow=ERoneToMany;rounded=0;entryX=1.004;entryY=0.639;entryDx=0;entryDy=0;entryPerimeter=0;exitX=0;exitY=0.5;exitDx=0;exitDy=0;" parent="1" source="ZA4WyWoLpMxVYpmelZ8A-585" target="ZA4WyWoLpMxVYpmelZ8A-572" edge="1">
          <mxGeometry width="100" height="100" relative="1" as="geometry">
            <mxPoint x="1200" y="207" as="sourcePoint" />
            <mxPoint x="1050" y="267" as="targetPoint" />
            <Array as="points">
              <mxPoint x="980" y="252" />
              <mxPoint x="870" y="247" />
            </Array>
          </mxGeometry>
        </mxCell>
        <mxCell id="ZA4WyWoLpMxVYpmelZ8A-579" value="&lt;font style=&quot;font-size: 15px; color: rgb(255, 255, 255);&quot;&gt;&lt;b&gt;has&lt;/b&gt;&lt;/font&gt;" style="rhombus;whiteSpace=wrap;html=1;fillColor=#FF6371;strokeColor=#2D7600;fontColor=#ffffff;" parent="1" vertex="1">
          <mxGeometry x="1120" y="-83" width="110" height="110" as="geometry" />
        </mxCell>
        <mxCell id="ZA4WyWoLpMxVYpmelZ8A-584" value="" style="endArrow=none;html=1;rounded=0;" parent="1" source="ZA4WyWoLpMxVYpmelZ8A-579" target="ZA4WyWoLpMxVYpmelZ8A-575" edge="1">
          <mxGeometry width="50" height="50" relative="1" as="geometry">
            <mxPoint x="1210" y="87" as="sourcePoint" />
            <mxPoint x="1290" y="47" as="targetPoint" />
          </mxGeometry>
        </mxCell>
        <mxCell id="ZA4WyWoLpMxVYpmelZ8A-585" value="&lt;font style=&quot;font-size: 15px; color: rgb(255, 255, 255);&quot;&gt;&lt;b&gt;has&lt;/b&gt;&lt;/font&gt;" style="rhombus;whiteSpace=wrap;html=1;fillColor=#FF6371;strokeColor=#2D7600;fontColor=#ffffff;" parent="1" vertex="1">
          <mxGeometry x="1120" y="47" width="110" height="110" as="geometry" />
        </mxCell>
        <mxCell id="ZA4WyWoLpMxVYpmelZ8A-587" value="" style="endArrow=none;html=1;rounded=0;exitX=1;exitY=0.5;exitDx=0;exitDy=0;" parent="1" source="ZA4WyWoLpMxVYpmelZ8A-585" target="ZA4WyWoLpMxVYpmelZ8A-574" edge="1">
          <mxGeometry width="50" height="50" relative="1" as="geometry">
            <mxPoint x="1163" y="186" as="sourcePoint" />
            <mxPoint x="1230" y="177" as="targetPoint" />
          </mxGeometry>
        </mxCell>
        <mxCell id="ZA4WyWoLpMxVYpmelZ8A-588" value="&lt;font style=&quot;font-size: 15px; color: rgb(255, 255, 255);&quot;&gt;id&lt;/font&gt;" style="ellipse;whiteSpace=wrap;html=1;fillColor=#e3c800;fontColor=#000000;strokeColor=#B09500;" parent="1" vertex="1">
          <mxGeometry x="1540" y="-103" width="70" height="70" as="geometry" />
        </mxCell>
        <mxCell id="ZA4WyWoLpMxVYpmelZ8A-589" value="" style="endArrow=none;html=1;rounded=0;exitX=1;exitY=0.5;exitDx=0;exitDy=0;" parent="1" source="ZA4WyWoLpMxVYpmelZ8A-575" target="ZA4WyWoLpMxVYpmelZ8A-588" edge="1">
          <mxGeometry width="50" height="50" relative="1" as="geometry">
            <mxPoint x="1520" y="47" as="sourcePoint" />
            <mxPoint x="1565.049380574656" y="20.10967686183585" as="targetPoint" />
          </mxGeometry>
        </mxCell>
        <mxCell id="ZA4WyWoLpMxVYpmelZ8A-590" value="&lt;font style=&quot;font-size: 15px; color: rgb(255, 255, 255);&quot;&gt;name&lt;/font&gt;" style="ellipse;whiteSpace=wrap;html=1;fillColor=#e3c800;fontColor=#000000;strokeColor=#B09500;" parent="1" vertex="1">
          <mxGeometry x="1540" y="-23" width="70" height="70" as="geometry" />
        </mxCell>
        <mxCell id="ZA4WyWoLpMxVYpmelZ8A-591" value="" style="endArrow=none;html=1;rounded=0;exitX=1;exitY=0.5;exitDx=0;exitDy=0;" parent="1" source="ZA4WyWoLpMxVYpmelZ8A-575" target="ZA4WyWoLpMxVYpmelZ8A-590" edge="1">
          <mxGeometry width="50" height="50" relative="1" as="geometry">
            <mxPoint x="1460" y="102" as="sourcePoint" />
            <mxPoint x="1520" y="217" as="targetPoint" />
          </mxGeometry>
        </mxCell>
        <mxCell id="ZA4WyWoLpMxVYpmelZ8A-592" value="&lt;font style=&quot;font-size: 15px; color: rgb(255, 255, 255);&quot;&gt;id&lt;/font&gt;" style="ellipse;whiteSpace=wrap;html=1;fillColor=#e3c800;fontColor=#000000;strokeColor=#B09500;" parent="1" vertex="1">
          <mxGeometry x="1540" y="57" width="70" height="70" as="geometry" />
        </mxCell>
        <mxCell id="ZA4WyWoLpMxVYpmelZ8A-593" value="&lt;font style=&quot;font-size: 15px; color: rgb(255, 255, 255);&quot;&gt;name&lt;/font&gt;" style="ellipse;whiteSpace=wrap;html=1;fillColor=#e3c800;fontColor=#000000;strokeColor=#B09500;" parent="1" vertex="1">
          <mxGeometry x="1540" y="137" width="70" height="70" as="geometry" />
        </mxCell>
        <mxCell id="ZA4WyWoLpMxVYpmelZ8A-594" value="" style="endArrow=none;html=1;rounded=0;entryX=0;entryY=0.5;entryDx=0;entryDy=0;exitX=1;exitY=0.5;exitDx=0;exitDy=0;" parent="1" target="ZA4WyWoLpMxVYpmelZ8A-592" edge="1" source="ZA4WyWoLpMxVYpmelZ8A-574">
          <mxGeometry width="50" height="50" relative="1" as="geometry">
            <mxPoint x="1500" y="207" as="sourcePoint" />
            <mxPoint x="1571" y="260" as="targetPoint" />
          </mxGeometry>
        </mxCell>
        <mxCell id="ZA4WyWoLpMxVYpmelZ8A-595" value="" style="endArrow=none;html=1;rounded=0;entryX=0;entryY=0.5;entryDx=0;entryDy=0;exitX=1;exitY=0.5;exitDx=0;exitDy=0;" parent="1" source="ZA4WyWoLpMxVYpmelZ8A-574" target="ZA4WyWoLpMxVYpmelZ8A-593" edge="1">
          <mxGeometry width="50" height="50" relative="1" as="geometry">
            <mxPoint x="1480" y="337" as="sourcePoint" />
            <mxPoint x="1567" y="343" as="targetPoint" />
          </mxGeometry>
        </mxCell>
        <mxCell id="ZA4WyWoLpMxVYpmelZ8A-596" value="&lt;font style=&quot;font-size: 22px; color: rgb(255, 255, 255);&quot;&gt;products_variants&lt;/font&gt;" style="rounded=0;whiteSpace=wrap;html=1;fillColor=#7D7D7D;strokeColor=#36393d;" parent="1" vertex="1">
          <mxGeometry x="845" y="-550" width="180" height="90" as="geometry" />
        </mxCell>
        <mxCell id="ZA4WyWoLpMxVYpmelZ8A-597" value="&lt;font style=&quot;font-size: 22px; color: rgb(255, 255, 255);&quot;&gt;sizes&lt;/font&gt;" style="rounded=0;whiteSpace=wrap;html=1;fillColor=#7D7D7D;strokeColor=#36393d;" parent="1" vertex="1">
          <mxGeometry x="1295" y="-313" width="180" height="90" as="geometry" />
        </mxCell>
        <mxCell id="ZA4WyWoLpMxVYpmelZ8A-598" value="&lt;span style=&quot;font-size: 22px;&quot;&gt;&lt;font style=&quot;color: rgb(255, 255, 255);&quot;&gt;colors&lt;/font&gt;&lt;/span&gt;" style="rounded=0;whiteSpace=wrap;html=1;fillColor=#7D7D7D;strokeColor=#36393d;" parent="1" vertex="1">
          <mxGeometry x="1290" y="-670" width="180" height="90" as="geometry" />
        </mxCell>
        <mxCell id="ZA4WyWoLpMxVYpmelZ8A-599" value="" style="edgeStyle=entityRelationEdgeStyle;fontSize=12;html=1;endArrow=ERoneToMany;rounded=0;exitX=0;exitY=0.5;exitDx=0;exitDy=0;" parent="1" source="ZA4WyWoLpMxVYpmelZ8A-601" target="ZA4WyWoLpMxVYpmelZ8A-596" edge="1">
          <mxGeometry width="100" height="100" relative="1" as="geometry">
            <mxPoint x="1075" y="-513" as="sourcePoint" />
            <mxPoint x="675" y="-328" as="targetPoint" />
            <Array as="points">
              <mxPoint x="1355" y="-453" />
              <mxPoint x="895" y="-413" />
              <mxPoint x="785" y="-418" />
            </Array>
          </mxGeometry>
        </mxCell>
        <mxCell id="ZA4WyWoLpMxVYpmelZ8A-600" value="" style="edgeStyle=entityRelationEdgeStyle;fontSize=12;html=1;endArrow=ERoneToMany;rounded=0;entryX=1.004;entryY=0.639;entryDx=0;entryDy=0;entryPerimeter=0;exitX=0;exitY=0.5;exitDx=0;exitDy=0;" parent="1" source="ZA4WyWoLpMxVYpmelZ8A-603" target="ZA4WyWoLpMxVYpmelZ8A-596" edge="1">
          <mxGeometry width="100" height="100" relative="1" as="geometry">
            <mxPoint x="1195" y="-373" as="sourcePoint" />
            <mxPoint x="1045" y="-313" as="targetPoint" />
            <Array as="points">
              <mxPoint x="975" y="-328" />
              <mxPoint x="865" y="-333" />
            </Array>
          </mxGeometry>
        </mxCell>
        <mxCell id="ZA4WyWoLpMxVYpmelZ8A-601" value="&lt;font style=&quot;font-size: 15px; color: rgb(255, 255, 255);&quot;&gt;&lt;b&gt;has&lt;/b&gt;&lt;/font&gt;" style="rhombus;whiteSpace=wrap;html=1;fillColor=#FF6371;strokeColor=#2D7600;fontColor=#ffffff;" parent="1" vertex="1">
          <mxGeometry x="1120" y="-673" width="110" height="110" as="geometry" />
        </mxCell>
        <mxCell id="ZA4WyWoLpMxVYpmelZ8A-602" value="" style="endArrow=none;html=1;rounded=0;" parent="1" source="ZA4WyWoLpMxVYpmelZ8A-601" target="ZA4WyWoLpMxVYpmelZ8A-598" edge="1">
          <mxGeometry width="50" height="50" relative="1" as="geometry">
            <mxPoint x="1201.92" y="-433" as="sourcePoint" />
            <mxPoint x="1281.92" y="-473" as="targetPoint" />
          </mxGeometry>
        </mxCell>
        <mxCell id="ZA4WyWoLpMxVYpmelZ8A-603" value="&lt;font style=&quot;font-size: 15px; color: rgb(255, 255, 255);&quot;&gt;&lt;b&gt;has&lt;/b&gt;&lt;/font&gt;" style="rhombus;whiteSpace=wrap;html=1;fillColor=#FF6371;strokeColor=#2D7600;fontColor=#ffffff;" parent="1" vertex="1">
          <mxGeometry x="1125" y="-323" width="110" height="110" as="geometry" />
        </mxCell>
        <mxCell id="ZA4WyWoLpMxVYpmelZ8A-604" value="" style="endArrow=none;html=1;rounded=0;exitX=1;exitY=0.5;exitDx=0;exitDy=0;" parent="1" source="ZA4WyWoLpMxVYpmelZ8A-603" target="ZA4WyWoLpMxVYpmelZ8A-597" edge="1">
          <mxGeometry width="50" height="50" relative="1" as="geometry">
            <mxPoint x="1158" y="-394" as="sourcePoint" />
            <mxPoint x="1225" y="-403" as="targetPoint" />
          </mxGeometry>
        </mxCell>
        <mxCell id="ZA4WyWoLpMxVYpmelZ8A-605" value="&lt;font style=&quot;font-size: 15px; color: rgb(255, 255, 255);&quot;&gt;id&lt;/font&gt;" style="ellipse;whiteSpace=wrap;html=1;fillColor=#e3c800;fontColor=#000000;strokeColor=#B09500;" parent="1" vertex="1">
          <mxGeometry x="1520" y="-720" width="70" height="70" as="geometry" />
        </mxCell>
        <mxCell id="ZA4WyWoLpMxVYpmelZ8A-606" value="" style="endArrow=none;html=1;rounded=0;exitX=1;exitY=0.5;exitDx=0;exitDy=0;entryX=-0.008;entryY=0.625;entryDx=0;entryDy=0;entryPerimeter=0;" parent="1" source="ZA4WyWoLpMxVYpmelZ8A-598" target="ZA4WyWoLpMxVYpmelZ8A-605" edge="1">
          <mxGeometry width="50" height="50" relative="1" as="geometry">
            <mxPoint x="1511.92" y="-473" as="sourcePoint" />
            <mxPoint x="1526.92" y="-483.02999999999975" as="targetPoint" />
          </mxGeometry>
        </mxCell>
        <mxCell id="ZA4WyWoLpMxVYpmelZ8A-607" value="&lt;font style=&quot;font-size: 15px; color: rgb(255, 255, 255);&quot;&gt;name&lt;/font&gt;" style="ellipse;whiteSpace=wrap;html=1;fillColor=#e3c800;fontColor=#000000;strokeColor=#B09500;" parent="1" vertex="1">
          <mxGeometry x="1520" y="-613" width="70" height="70" as="geometry" />
        </mxCell>
        <mxCell id="ZA4WyWoLpMxVYpmelZ8A-608" value="" style="endArrow=none;html=1;rounded=0;exitX=1;exitY=0.5;exitDx=0;exitDy=0;entryX=0;entryY=0.5;entryDx=0;entryDy=0;" parent="1" source="ZA4WyWoLpMxVYpmelZ8A-598" target="ZA4WyWoLpMxVYpmelZ8A-607" edge="1">
          <mxGeometry width="50" height="50" relative="1" as="geometry">
            <mxPoint x="1451.92" y="-418" as="sourcePoint" />
            <mxPoint x="1530.0027473188866" y="-422.3627637065006" as="targetPoint" />
          </mxGeometry>
        </mxCell>
        <mxCell id="ZA4WyWoLpMxVYpmelZ8A-609" value="&lt;font style=&quot;font-size: 15px; color: rgb(255, 255, 255);&quot;&gt;id&lt;/font&gt;" style="ellipse;whiteSpace=wrap;html=1;fillColor=#e3c800;fontColor=#000000;strokeColor=#B09500;" parent="1" vertex="1">
          <mxGeometry x="1540" y="-343" width="70" height="70" as="geometry" />
        </mxCell>
        <mxCell id="ZA4WyWoLpMxVYpmelZ8A-610" value="&lt;font style=&quot;font-size: 15px; color: rgb(255, 255, 255);&quot;&gt;name&lt;/font&gt;" style="ellipse;whiteSpace=wrap;html=1;fillColor=#e3c800;fontColor=#000000;strokeColor=#B09500;" parent="1" vertex="1">
          <mxGeometry x="1540" y="-263" width="70" height="70" as="geometry" />
        </mxCell>
        <mxCell id="ZA4WyWoLpMxVYpmelZ8A-611" value="" style="endArrow=none;html=1;rounded=0;entryX=0;entryY=1;entryDx=0;entryDy=0;exitX=1;exitY=0.5;exitDx=0;exitDy=0;" parent="1" source="ZA4WyWoLpMxVYpmelZ8A-597" target="ZA4WyWoLpMxVYpmelZ8A-609" edge="1">
          <mxGeometry width="50" height="50" relative="1" as="geometry">
            <mxPoint x="1470" y="-273" as="sourcePoint" />
            <mxPoint x="1566" y="-320" as="targetPoint" />
          </mxGeometry>
        </mxCell>
        <mxCell id="ZA4WyWoLpMxVYpmelZ8A-612" value="" style="endArrow=none;html=1;rounded=0;entryX=0;entryY=0.5;entryDx=0;entryDy=0;" parent="1" target="ZA4WyWoLpMxVYpmelZ8A-610" edge="1">
          <mxGeometry width="50" height="50" relative="1" as="geometry">
            <mxPoint x="1475" y="-263" as="sourcePoint" />
            <mxPoint x="1562" y="-237" as="targetPoint" />
          </mxGeometry>
        </mxCell>
        <mxCell id="ZA4WyWoLpMxVYpmelZ8A-624" value="" style="fontSize=12;html=1;endArrow=ERoneToMany;rounded=0;exitX=0.5;exitY=0;exitDx=0;exitDy=0;entryX=0.5;entryY=1;entryDx=0;entryDy=0;" parent="1" source="ZA4WyWoLpMxVYpmelZ8A-616" target="ZA4WyWoLpMxVYpmelZ8A-596" edge="1">
          <mxGeometry width="100" height="100" relative="1" as="geometry">
            <mxPoint x="980" y="-223" as="sourcePoint" />
            <mxPoint x="980" y="-283" as="targetPoint" />
          </mxGeometry>
        </mxCell>
        <mxCell id="ZA4WyWoLpMxVYpmelZ8A-616" value="&lt;font style=&quot;font-size: 15px; color: rgb(255, 255, 255);&quot;&gt;&lt;b&gt;has&lt;/b&gt;&lt;/font&gt;" style="rhombus;whiteSpace=wrap;html=1;fillColor=#FF6371;strokeColor=#2D7600;fontColor=#ffffff;" parent="1" vertex="1">
          <mxGeometry x="880" y="-333" width="110" height="110" as="geometry" />
        </mxCell>
        <mxCell id="ZA4WyWoLpMxVYpmelZ8A-626" value="" style="endArrow=none;html=1;rounded=0;exitX=0.5;exitY=1;exitDx=0;exitDy=0;" parent="1" source="ZA4WyWoLpMxVYpmelZ8A-616" target="ZA4WyWoLpMxVYpmelZ8A-572" edge="1">
          <mxGeometry width="50" height="50" relative="1" as="geometry">
            <mxPoint x="900" y="-43" as="sourcePoint" />
            <mxPoint x="960" y="-43" as="targetPoint" />
          </mxGeometry>
        </mxCell>
        <mxCell id="PaUmiDtv0SXfTeHNfYGQ-9" value="&lt;font color=&quot;#ffffff&quot;&gt;&lt;span style=&quot;font-size: 22px;&quot;&gt;order_items&lt;/span&gt;&lt;/font&gt;" style="rounded=0;whiteSpace=wrap;html=1;fillColor=#7D7D7D;strokeColor=#36393d;" vertex="1" parent="1">
          <mxGeometry x="845" y="-980" width="180" height="90" as="geometry" />
        </mxCell>
        <mxCell id="PaUmiDtv0SXfTeHNfYGQ-10" value="" style="fontSize=12;html=1;endArrow=ERoneToMany;rounded=0;exitX=0.5;exitY=0;exitDx=0;exitDy=0;entryX=0.5;entryY=1;entryDx=0;entryDy=0;" edge="1" parent="1" source="PaUmiDtv0SXfTeHNfYGQ-11" target="PaUmiDtv0SXfTeHNfYGQ-9">
          <mxGeometry width="100" height="100" relative="1" as="geometry">
            <mxPoint x="990" y="-630" as="sourcePoint" />
            <mxPoint x="938" y="-752" as="targetPoint" />
          </mxGeometry>
        </mxCell>
        <mxCell id="PaUmiDtv0SXfTeHNfYGQ-11" value="&lt;font style=&quot;font-size: 15px; color: rgb(255, 255, 255);&quot;&gt;&lt;b&gt;has&lt;/b&gt;&lt;/font&gt;" style="rhombus;whiteSpace=wrap;html=1;fillColor=#FF6371;strokeColor=#2D7600;fontColor=#ffffff;" vertex="1" parent="1">
          <mxGeometry x="880" y="-840" width="110" height="110" as="geometry" />
        </mxCell>
        <mxCell id="PaUmiDtv0SXfTeHNfYGQ-14" value="" style="endArrow=none;html=1;rounded=0;exitX=0.5;exitY=0;exitDx=0;exitDy=0;entryX=0.5;entryY=1;entryDx=0;entryDy=0;" edge="1" parent="1" source="ZA4WyWoLpMxVYpmelZ8A-596" target="PaUmiDtv0SXfTeHNfYGQ-11">
          <mxGeometry width="50" height="50" relative="1" as="geometry">
            <mxPoint x="1160" y="-543" as="sourcePoint" />
            <mxPoint x="1020" y="-543" as="targetPoint" />
          </mxGeometry>
        </mxCell>
        <mxCell id="PaUmiDtv0SXfTeHNfYGQ-15" value="&lt;font color=&quot;#ffffff&quot;&gt;&lt;span style=&quot;font-size: 22px;&quot;&gt;orders&lt;/span&gt;&lt;/font&gt;" style="rounded=0;whiteSpace=wrap;html=1;fillColor=#7D7D7D;strokeColor=#36393d;" vertex="1" parent="1">
          <mxGeometry x="470" y="-980" width="180" height="90" as="geometry" />
        </mxCell>
        <mxCell id="PaUmiDtv0SXfTeHNfYGQ-16" value="" style="edgeStyle=entityRelationEdgeStyle;fontSize=12;html=1;endArrow=ERoneToMany;rounded=0;entryX=0;entryY=0.5;entryDx=0;entryDy=0;exitX=1;exitY=0.5;exitDx=0;exitDy=0;" edge="1" parent="1" source="PaUmiDtv0SXfTeHNfYGQ-17" target="PaUmiDtv0SXfTeHNfYGQ-9">
          <mxGeometry width="100" height="100" relative="1" as="geometry">
            <mxPoint x="730" y="-783" as="sourcePoint" />
            <mxPoint x="830" y="-883" as="targetPoint" />
          </mxGeometry>
        </mxCell>
        <mxCell id="PaUmiDtv0SXfTeHNfYGQ-17" value="&lt;font style=&quot;font-size: 15px; color: rgb(255, 255, 255);&quot;&gt;&lt;b&gt;has&lt;/b&gt;&lt;/font&gt;" style="rhombus;whiteSpace=wrap;html=1;fillColor=#FF6371;strokeColor=#2D7600;fontColor=#ffffff;" vertex="1" parent="1">
          <mxGeometry x="680" y="-990" width="110" height="110" as="geometry" />
        </mxCell>
        <mxCell id="PaUmiDtv0SXfTeHNfYGQ-19" value="" style="endArrow=none;html=1;rounded=0;exitX=1;exitY=0.5;exitDx=0;exitDy=0;entryX=0;entryY=0.5;entryDx=0;entryDy=0;" edge="1" parent="1" source="PaUmiDtv0SXfTeHNfYGQ-15" target="PaUmiDtv0SXfTeHNfYGQ-17">
          <mxGeometry width="50" height="50" relative="1" as="geometry">
            <mxPoint x="620" y="-703" as="sourcePoint" />
            <mxPoint x="670" y="-753" as="targetPoint" />
          </mxGeometry>
        </mxCell>
        <mxCell id="PaUmiDtv0SXfTeHNfYGQ-21" value="&lt;font color=&quot;#ffffff&quot;&gt;&lt;span style=&quot;font-size: 22px;&quot;&gt;payments&lt;/span&gt;&lt;/font&gt;" style="rounded=0;whiteSpace=wrap;html=1;fillColor=#7D7D7D;strokeColor=#36393d;" vertex="1" parent="1">
          <mxGeometry x="90" y="-980" width="180" height="90" as="geometry" />
        </mxCell>
        <mxCell id="PaUmiDtv0SXfTeHNfYGQ-22" value="&lt;font style=&quot;font-size: 15px; color: rgb(255, 255, 255);&quot;&gt;&lt;b&gt;has&lt;/b&gt;&lt;/font&gt;" style="rhombus;whiteSpace=wrap;html=1;fillColor=#FF6371;strokeColor=#2D7600;fontColor=#ffffff;" vertex="1" parent="1">
          <mxGeometry x="320" y="-990" width="110" height="110" as="geometry" />
        </mxCell>
        <mxCell id="PaUmiDtv0SXfTeHNfYGQ-23" value="" style="edgeStyle=entityRelationEdgeStyle;fontSize=12;html=1;endArrow=ERoneToMany;rounded=0;entryX=1;entryY=0.5;entryDx=0;entryDy=0;" edge="1" parent="1" source="PaUmiDtv0SXfTeHNfYGQ-22" target="PaUmiDtv0SXfTeHNfYGQ-21">
          <mxGeometry width="100" height="100" relative="1" as="geometry">
            <mxPoint x="290" y="-793" as="sourcePoint" />
            <mxPoint x="670" y="-913" as="targetPoint" />
          </mxGeometry>
        </mxCell>
        <mxCell id="PaUmiDtv0SXfTeHNfYGQ-24" value="" style="endArrow=none;html=1;rounded=0;entryX=1;entryY=0.5;entryDx=0;entryDy=0;exitX=0;exitY=0.5;exitDx=0;exitDy=0;" edge="1" parent="1" source="PaUmiDtv0SXfTeHNfYGQ-15" target="PaUmiDtv0SXfTeHNfYGQ-22">
          <mxGeometry width="50" height="50" relative="1" as="geometry">
            <mxPoint x="590" y="-843" as="sourcePoint" />
            <mxPoint x="640" y="-893" as="targetPoint" />
            <Array as="points" />
          </mxGeometry>
        </mxCell>
        <mxCell id="PaUmiDtv0SXfTeHNfYGQ-25" value="&lt;font color=&quot;#ffffff&quot;&gt;&lt;span style=&quot;font-size: 22px;&quot;&gt;users&lt;/span&gt;&lt;/font&gt;" style="rounded=0;whiteSpace=wrap;html=1;fillColor=#7D7D7D;strokeColor=#36393d;" vertex="1" parent="1">
          <mxGeometry x="90" y="-623" width="180" height="90" as="geometry" />
        </mxCell>
        <mxCell id="PaUmiDtv0SXfTeHNfYGQ-28" value="" style="fontSize=12;html=1;endArrow=ERoneToMany;rounded=0;exitX=0.5;exitY=0;exitDx=0;exitDy=0;entryX=0.5;entryY=1;entryDx=0;entryDy=0;" edge="1" parent="1" source="PaUmiDtv0SXfTeHNfYGQ-25" target="PaUmiDtv0SXfTeHNfYGQ-21">
          <mxGeometry width="100" height="100" relative="1" as="geometry">
            <mxPoint x="140" y="-616" as="sourcePoint" />
            <mxPoint x="140" y="-723" as="targetPoint" />
          </mxGeometry>
        </mxCell>
        <mxCell id="PaUmiDtv0SXfTeHNfYGQ-29" value="" style="fontSize=12;html=1;endArrow=ERoneToMany;rounded=0;entryX=0.5;entryY=1;entryDx=0;entryDy=0;exitX=0.5;exitY=0;exitDx=0;exitDy=0;" edge="1" parent="1" source="PaUmiDtv0SXfTeHNfYGQ-33" target="PaUmiDtv0SXfTeHNfYGQ-15">
          <mxGeometry width="100" height="100" relative="1" as="geometry">
            <mxPoint x="559.1700000000001" y="-576" as="sourcePoint" />
            <mxPoint x="559.1700000000001" y="-713" as="targetPoint" />
            <Array as="points" />
          </mxGeometry>
        </mxCell>
        <mxCell id="PaUmiDtv0SXfTeHNfYGQ-33" value="&lt;font style=&quot;font-size: 15px; color: rgb(255, 255, 255);&quot;&gt;&lt;b&gt;has&lt;/b&gt;&lt;/font&gt;" style="rhombus;whiteSpace=wrap;html=1;fillColor=#FF6371;strokeColor=#2D7600;fontColor=#ffffff;" vertex="1" parent="1">
          <mxGeometry x="505" y="-633" width="110" height="110" as="geometry" />
        </mxCell>
        <mxCell id="PaUmiDtv0SXfTeHNfYGQ-35" value="" style="endArrow=none;html=1;rounded=0;entryX=0;entryY=0.5;entryDx=0;entryDy=0;" edge="1" parent="1" source="PaUmiDtv0SXfTeHNfYGQ-25" target="PaUmiDtv0SXfTeHNfYGQ-33">
          <mxGeometry width="50" height="50" relative="1" as="geometry">
            <mxPoint x="700" y="-563" as="sourcePoint" />
            <mxPoint x="750" y="-613" as="targetPoint" />
          </mxGeometry>
        </mxCell>
        <mxCell id="PaUmiDtv0SXfTeHNfYGQ-38" value="&lt;font color=&quot;#ffffff&quot;&gt;&lt;span style=&quot;font-size: 22px;&quot;&gt;cart&lt;/span&gt;&lt;/font&gt;" style="rounded=0;whiteSpace=wrap;html=1;fillColor=#7D7D7D;strokeColor=#36393d;" vertex="1" parent="1">
          <mxGeometry x="480" y="-433" width="180" height="90" as="geometry" />
        </mxCell>
        <mxCell id="PaUmiDtv0SXfTeHNfYGQ-39" value="&lt;font style=&quot;font-size: 15px; color: rgb(255, 255, 255);&quot;&gt;&lt;b&gt;has&lt;/b&gt;&lt;/font&gt;" style="rhombus;whiteSpace=wrap;html=1;fillColor=#FF6371;strokeColor=#2D7600;fontColor=#ffffff;" vertex="1" parent="1">
          <mxGeometry x="275" y="-443" width="110" height="110" as="geometry" />
        </mxCell>
        <mxCell id="PaUmiDtv0SXfTeHNfYGQ-40" value="" style="endArrow=none;html=1;rounded=0;entryX=0;entryY=0.5;entryDx=0;entryDy=0;exitX=0.5;exitY=1;exitDx=0;exitDy=0;" edge="1" parent="1" target="PaUmiDtv0SXfTeHNfYGQ-39" source="PaUmiDtv0SXfTeHNfYGQ-25">
          <mxGeometry width="50" height="50" relative="1" as="geometry">
            <mxPoint x="40" y="-388" as="sourcePoint" />
            <mxPoint x="520" y="-393" as="targetPoint" />
            <Array as="points">
              <mxPoint x="180" y="-388" />
            </Array>
          </mxGeometry>
        </mxCell>
        <mxCell id="PaUmiDtv0SXfTeHNfYGQ-41" value="" style="fontSize=12;html=1;endArrow=ERoneToMany;rounded=0;entryX=0;entryY=0.5;entryDx=0;entryDy=0;exitX=1;exitY=0.5;exitDx=0;exitDy=0;" edge="1" parent="1" source="PaUmiDtv0SXfTeHNfYGQ-39" target="PaUmiDtv0SXfTeHNfYGQ-38">
          <mxGeometry width="100" height="100" relative="1" as="geometry">
            <mxPoint x="570" y="-623" as="sourcePoint" />
            <mxPoint x="570" y="-740" as="targetPoint" />
            <Array as="points" />
          </mxGeometry>
        </mxCell>
        <mxCell id="PaUmiDtv0SXfTeHNfYGQ-44" value="" style="edgeStyle=entityRelationEdgeStyle;fontSize=12;html=1;endArrow=ERoneToMany;rounded=0;entryX=1;entryY=0.5;entryDx=0;entryDy=0;exitX=0;exitY=0.5;exitDx=0;exitDy=0;" edge="1" parent="1" source="PaUmiDtv0SXfTeHNfYGQ-45" target="PaUmiDtv0SXfTeHNfYGQ-38">
          <mxGeometry width="100" height="100" relative="1" as="geometry">
            <mxPoint x="780" y="-383" as="sourcePoint" />
            <mxPoint x="680" y="-253" as="targetPoint" />
          </mxGeometry>
        </mxCell>
        <mxCell id="PaUmiDtv0SXfTeHNfYGQ-45" value="&lt;font style=&quot;font-size: 15px; color: rgb(255, 255, 255);&quot;&gt;&lt;b&gt;has&lt;/b&gt;&lt;/font&gt;" style="rhombus;whiteSpace=wrap;html=1;fillColor=#FF6371;strokeColor=#2D7600;fontColor=#ffffff;" vertex="1" parent="1">
          <mxGeometry x="735" y="-443" width="110" height="110" as="geometry" />
        </mxCell>
        <mxCell id="PaUmiDtv0SXfTeHNfYGQ-47" value="" style="endArrow=none;html=1;rounded=0;entryX=0;entryY=0.5;entryDx=0;entryDy=0;exitX=1;exitY=0.5;exitDx=0;exitDy=0;" edge="1" parent="1" source="PaUmiDtv0SXfTeHNfYGQ-45" target="ZA4WyWoLpMxVYpmelZ8A-596">
          <mxGeometry width="50" height="50" relative="1" as="geometry">
            <mxPoint x="795" y="-383" as="sourcePoint" />
            <mxPoint x="845" y="-433" as="targetPoint" />
          </mxGeometry>
        </mxCell>
        <mxCell id="PaUmiDtv0SXfTeHNfYGQ-48" value="&lt;font color=&quot;#ffffff&quot;&gt;&lt;span style=&quot;font-size: 22px;&quot;&gt;feedback&lt;/span&gt;&lt;/font&gt;" style="rounded=0;whiteSpace=wrap;html=1;fillColor=#7D7D7D;strokeColor=#36393d;" vertex="1" parent="1">
          <mxGeometry x="385" y="-103" width="180" height="90" as="geometry" />
        </mxCell>
        <mxCell id="PaUmiDtv0SXfTeHNfYGQ-54" value="" style="fontSize=12;html=1;endArrow=ERoneToMany;rounded=0;exitX=1;exitY=0.5;exitDx=0;exitDy=0;" edge="1" parent="1" source="PaUmiDtv0SXfTeHNfYGQ-53" target="PaUmiDtv0SXfTeHNfYGQ-48">
          <mxGeometry width="100" height="100" relative="1" as="geometry">
            <mxPoint x="315" y="-58.39999999999998" as="sourcePoint" />
            <mxPoint x="385" y="-58.24000000000012" as="targetPoint" />
            <Array as="points" />
          </mxGeometry>
        </mxCell>
        <mxCell id="PaUmiDtv0SXfTeHNfYGQ-53" value="&lt;font style=&quot;font-size: 15px; color: rgb(255, 255, 255);&quot;&gt;&lt;b&gt;has&lt;/b&gt;&lt;/font&gt;" style="rhombus;whiteSpace=wrap;html=1;fillColor=#FF6371;strokeColor=#2D7600;fontColor=#ffffff;" vertex="1" parent="1">
          <mxGeometry x="125" y="-113" width="110" height="110" as="geometry" />
        </mxCell>
        <mxCell id="PaUmiDtv0SXfTeHNfYGQ-55" value="" style="endArrow=none;html=1;rounded=0;entryX=0.5;entryY=0;entryDx=0;entryDy=0;exitX=0.5;exitY=1;exitDx=0;exitDy=0;" edge="1" parent="1" source="PaUmiDtv0SXfTeHNfYGQ-25" target="PaUmiDtv0SXfTeHNfYGQ-53">
          <mxGeometry width="50" height="50" relative="1" as="geometry">
            <mxPoint x="180" y="-333" as="sourcePoint" />
            <mxPoint x="275" y="-188" as="targetPoint" />
            <Array as="points">
              <mxPoint x="180" y="-188" />
            </Array>
          </mxGeometry>
        </mxCell>
        <mxCell id="PaUmiDtv0SXfTeHNfYGQ-59" value="&lt;font style=&quot;font-size: 15px; color: rgb(255, 255, 255);&quot;&gt;&lt;b&gt;has&lt;/b&gt;&lt;/font&gt;" style="rhombus;whiteSpace=wrap;html=1;fillColor=#FF6371;strokeColor=#2D7600;fontColor=#ffffff;" vertex="1" parent="1">
          <mxGeometry x="420" y="97" width="110" height="110" as="geometry" />
        </mxCell>
        <mxCell id="PaUmiDtv0SXfTeHNfYGQ-62" value="" style="endArrow=none;html=1;rounded=0;entryX=0;entryY=0.5;entryDx=0;entryDy=0;exitX=1;exitY=0.5;exitDx=0;exitDy=0;" edge="1" parent="1" source="PaUmiDtv0SXfTeHNfYGQ-59" target="ZA4WyWoLpMxVYpmelZ8A-572">
          <mxGeometry width="50" height="50" relative="1" as="geometry">
            <mxPoint x="750" y="27" as="sourcePoint" />
            <mxPoint x="800" y="-23" as="targetPoint" />
          </mxGeometry>
        </mxCell>
        <mxCell id="PaUmiDtv0SXfTeHNfYGQ-64" value="" style="fontSize=12;html=1;endArrow=ERoneToMany;rounded=0;exitX=0.5;exitY=0;exitDx=0;exitDy=0;" edge="1" parent="1" source="PaUmiDtv0SXfTeHNfYGQ-59" target="PaUmiDtv0SXfTeHNfYGQ-48">
          <mxGeometry width="100" height="100" relative="1" as="geometry">
            <mxPoint x="460" y="77" as="sourcePoint" />
            <mxPoint x="470" y="-13" as="targetPoint" />
            <Array as="points" />
          </mxGeometry>
        </mxCell>
        <mxCell id="PaUmiDtv0SXfTeHNfYGQ-66" value="&lt;font color=&quot;#ffffff&quot;&gt;&lt;span style=&quot;font-size: 22px;&quot;&gt;product_images&lt;/span&gt;&lt;/font&gt;" style="rounded=0;whiteSpace=wrap;html=1;fillColor=#7D7D7D;strokeColor=#36393d;" vertex="1" parent="1">
          <mxGeometry x="846.25" y="350" width="180" height="90" as="geometry" />
        </mxCell>
        <mxCell id="PaUmiDtv0SXfTeHNfYGQ-67" value="&lt;font style=&quot;font-size: 15px; color: rgb(255, 255, 255);&quot;&gt;&lt;b&gt;has&lt;/b&gt;&lt;/font&gt;" style="rhombus;whiteSpace=wrap;html=1;fillColor=#FF6371;strokeColor=#2D7600;fontColor=#ffffff;" vertex="1" parent="1">
          <mxGeometry x="880" y="157" width="110" height="110" as="geometry" />
        </mxCell>
        <mxCell id="PaUmiDtv0SXfTeHNfYGQ-69" value="" style="fontSize=12;html=1;endArrow=ERoneToMany;rounded=0;" edge="1" parent="1" source="PaUmiDtv0SXfTeHNfYGQ-67" target="PaUmiDtv0SXfTeHNfYGQ-66">
          <mxGeometry width="100" height="100" relative="1" as="geometry">
            <mxPoint x="934.47" y="247" as="sourcePoint" />
            <mxPoint x="934.47" y="330" as="targetPoint" />
          </mxGeometry>
        </mxCell>
        <mxCell id="PaUmiDtv0SXfTeHNfYGQ-70" value="" style="endArrow=none;html=1;rounded=0;" edge="1" parent="1" source="ZA4WyWoLpMxVYpmelZ8A-572" target="PaUmiDtv0SXfTeHNfYGQ-67">
          <mxGeometry width="50" height="50" relative="1" as="geometry">
            <mxPoint x="934.47" y="72" as="sourcePoint" />
            <mxPoint x="934.47" y="132" as="targetPoint" />
          </mxGeometry>
        </mxCell>
        <mxCell id="PaUmiDtv0SXfTeHNfYGQ-71" value="&lt;font style=&quot;font-size: 15px; color: rgb(255, 255, 255);&quot;&gt;id&lt;/font&gt;" style="ellipse;whiteSpace=wrap;html=1;fillColor=#e3c800;fontColor=#000000;strokeColor=#B09500;" vertex="1" parent="1">
          <mxGeometry x="1090" y="310" width="70" height="70" as="geometry" />
        </mxCell>
        <mxCell id="PaUmiDtv0SXfTeHNfYGQ-72" value="&lt;font style=&quot;font-size: 15px; color: rgb(255, 255, 255);&quot;&gt;url&lt;/font&gt;" style="ellipse;whiteSpace=wrap;html=1;fillColor=#e3c800;fontColor=#000000;strokeColor=#B09500;" vertex="1" parent="1">
          <mxGeometry x="1090" y="390" width="70" height="70" as="geometry" />
        </mxCell>
        <mxCell id="PaUmiDtv0SXfTeHNfYGQ-73" value="" style="endArrow=none;html=1;rounded=0;" edge="1" parent="1" target="PaUmiDtv0SXfTeHNfYGQ-71">
          <mxGeometry width="50" height="50" relative="1" as="geometry">
            <mxPoint x="1025" y="395" as="sourcePoint" />
            <mxPoint x="1121" y="510" as="targetPoint" />
          </mxGeometry>
        </mxCell>
        <mxCell id="PaUmiDtv0SXfTeHNfYGQ-74" value="" style="endArrow=none;html=1;rounded=0;exitX=1;exitY=0.5;exitDx=0;exitDy=0;entryX=0;entryY=0.5;entryDx=0;entryDy=0;" edge="1" parent="1" target="PaUmiDtv0SXfTeHNfYGQ-72" source="PaUmiDtv0SXfTeHNfYGQ-66">
          <mxGeometry width="50" height="50" relative="1" as="geometry">
            <mxPoint x="1025" y="352" as="sourcePoint" />
            <mxPoint x="1090" y="410" as="targetPoint" />
          </mxGeometry>
        </mxCell>
        <mxCell id="PaUmiDtv0SXfTeHNfYGQ-75" value="&lt;font style=&quot;font-size: 15px; color: rgb(255, 255, 255);&quot;&gt;id&lt;/font&gt;" style="ellipse;whiteSpace=wrap;html=1;fillColor=#e3c800;fontColor=#000000;strokeColor=#B09500;" vertex="1" parent="1">
          <mxGeometry x="830" y="-133" width="70" height="70" as="geometry" />
        </mxCell>
        <mxCell id="PaUmiDtv0SXfTeHNfYGQ-76" value="&lt;font style=&quot;font-size: 15px; color: rgb(255, 255, 255);&quot;&gt;name&lt;/font&gt;" style="ellipse;whiteSpace=wrap;html=1;fillColor=#e3c800;fontColor=#000000;strokeColor=#B09500;" vertex="1" parent="1">
          <mxGeometry x="970" y="-133" width="70" height="70" as="geometry" />
        </mxCell>
        <mxCell id="PaUmiDtv0SXfTeHNfYGQ-77" value="" style="endArrow=none;html=1;rounded=0;exitX=0.5;exitY=0;exitDx=0;exitDy=0;" edge="1" parent="1" target="PaUmiDtv0SXfTeHNfYGQ-75" source="ZA4WyWoLpMxVYpmelZ8A-572">
          <mxGeometry width="50" height="50" relative="1" as="geometry">
            <mxPoint x="935" y="-19.749999999999773" as="sourcePoint" />
            <mxPoint x="836" y="299.75" as="targetPoint" />
          </mxGeometry>
        </mxCell>
        <mxCell id="PaUmiDtv0SXfTeHNfYGQ-78" value="" style="endArrow=none;html=1;rounded=0;exitX=0;exitY=1;exitDx=0;exitDy=0;entryX=0.528;entryY=0.032;entryDx=0;entryDy=0;entryPerimeter=0;" edge="1" parent="1" target="ZA4WyWoLpMxVYpmelZ8A-572" source="PaUmiDtv0SXfTeHNfYGQ-76">
          <mxGeometry width="50" height="50" relative="1" as="geometry">
            <mxPoint x="975.0700000000006" y="-93.73400000000017" as="sourcePoint" />
            <mxPoint x="940" y="-30" as="targetPoint" />
          </mxGeometry>
        </mxCell>
        <mxCell id="PaUmiDtv0SXfTeHNfYGQ-79" value="&lt;font color=&quot;#ffffff&quot;&gt;&lt;span style=&quot;font-size: 15px;&quot;&gt;product_id&lt;/span&gt;&lt;/font&gt;" style="ellipse;whiteSpace=wrap;html=1;fillColor=#e3c800;fontColor=#000000;strokeColor=#B09500;" vertex="1" parent="1">
          <mxGeometry x="620" y="-63" width="70" height="70" as="geometry" />
        </mxCell>
        <mxCell id="PaUmiDtv0SXfTeHNfYGQ-80" value="&lt;font style=&quot;font-size: 15px; color: rgb(255, 255, 255);&quot;&gt;messsage&lt;/font&gt;" style="ellipse;whiteSpace=wrap;html=1;fillColor=#e3c800;fontColor=#000000;strokeColor=#B09500;" vertex="1" parent="1">
          <mxGeometry x="620" y="17" width="70" height="70" as="geometry" />
        </mxCell>
        <mxCell id="PaUmiDtv0SXfTeHNfYGQ-81" value="" style="endArrow=none;html=1;rounded=0;exitX=1;exitY=0.5;exitDx=0;exitDy=0;entryX=0;entryY=0.5;entryDx=0;entryDy=0;" edge="1" parent="1" target="PaUmiDtv0SXfTeHNfYGQ-79" source="PaUmiDtv0SXfTeHNfYGQ-48">
          <mxGeometry width="50" height="50" relative="1" as="geometry">
            <mxPoint x="660" y="-188" as="sourcePoint" />
            <mxPoint x="740" y="-200" as="targetPoint" />
          </mxGeometry>
        </mxCell>
        <mxCell id="PaUmiDtv0SXfTeHNfYGQ-82" value="" style="endArrow=none;html=1;rounded=0;entryX=0;entryY=0.5;entryDx=0;entryDy=0;exitX=1;exitY=0.5;exitDx=0;exitDy=0;" edge="1" parent="1" target="PaUmiDtv0SXfTeHNfYGQ-80" source="PaUmiDtv0SXfTeHNfYGQ-48">
          <mxGeometry width="50" height="50" relative="1" as="geometry">
            <mxPoint x="660" y="-188" as="sourcePoint" />
            <mxPoint x="752" y="53" as="targetPoint" />
          </mxGeometry>
        </mxCell>
        <mxCell id="PaUmiDtv0SXfTeHNfYGQ-85" value="&lt;font style=&quot;font-size: 15px; color: rgb(255, 255, 255);&quot;&gt;name&lt;/font&gt;" style="ellipse;whiteSpace=wrap;html=1;fillColor=#e3c800;fontColor=#000000;strokeColor=#B09500;" vertex="1" parent="1">
          <mxGeometry x="-50" y="-693" width="70" height="70" as="geometry" />
        </mxCell>
        <mxCell id="PaUmiDtv0SXfTeHNfYGQ-86" value="&lt;font style=&quot;font-size: 15px; color: rgb(255, 255, 255);&quot;&gt;password&lt;/font&gt;" style="ellipse;whiteSpace=wrap;html=1;fillColor=#e3c800;fontColor=#000000;strokeColor=#B09500;" vertex="1" parent="1">
          <mxGeometry x="-50" y="-600" width="70" height="70" as="geometry" />
        </mxCell>
        <mxCell id="PaUmiDtv0SXfTeHNfYGQ-87" value="" style="endArrow=none;html=1;rounded=0;exitX=0;exitY=0.5;exitDx=0;exitDy=0;entryX=1;entryY=0.5;entryDx=0;entryDy=0;" edge="1" parent="1" target="PaUmiDtv0SXfTeHNfYGQ-85" source="PaUmiDtv0SXfTeHNfYGQ-25">
          <mxGeometry width="50" height="50" relative="1" as="geometry">
            <mxPoint x="-120" y="-538" as="sourcePoint" />
            <mxPoint x="10" y="-560" as="targetPoint" />
          </mxGeometry>
        </mxCell>
        <mxCell id="PaUmiDtv0SXfTeHNfYGQ-88" value="" style="endArrow=none;html=1;rounded=0;entryX=0.974;entryY=0.371;entryDx=0;entryDy=0;entryPerimeter=0;exitX=0;exitY=0.5;exitDx=0;exitDy=0;" edge="1" parent="1" target="PaUmiDtv0SXfTeHNfYGQ-86" source="PaUmiDtv0SXfTeHNfYGQ-25">
          <mxGeometry width="50" height="50" relative="1" as="geometry">
            <mxPoint x="88" y="-580" as="sourcePoint" />
            <mxPoint x="-28" y="-297" as="targetPoint" />
          </mxGeometry>
        </mxCell>
        <mxCell id="PaUmiDtv0SXfTeHNfYGQ-92" value="&lt;font style=&quot;font-size: 15px; color: rgb(255, 255, 255);&quot;&gt;product_id&lt;/font&gt;" style="ellipse;whiteSpace=wrap;html=1;fillColor=#e3c800;fontColor=#000000;strokeColor=#B09500;" vertex="1" parent="1">
          <mxGeometry x="825" y="-663" width="70" height="70" as="geometry" />
        </mxCell>
        <mxCell id="PaUmiDtv0SXfTeHNfYGQ-93" value="&lt;font color=&quot;#ffffff&quot;&gt;&lt;span style=&quot;font-size: 15px;&quot;&gt;price&lt;/span&gt;&lt;/font&gt;" style="ellipse;whiteSpace=wrap;html=1;fillColor=#e3c800;fontColor=#000000;strokeColor=#B09500;" vertex="1" parent="1">
          <mxGeometry x="970" y="-670" width="70" height="70" as="geometry" />
        </mxCell>
        <mxCell id="PaUmiDtv0SXfTeHNfYGQ-94" value="" style="endArrow=none;html=1;rounded=0;exitX=0.5;exitY=0;exitDx=0;exitDy=0;" edge="1" parent="1" target="PaUmiDtv0SXfTeHNfYGQ-92" source="ZA4WyWoLpMxVYpmelZ8A-596">
          <mxGeometry width="50" height="50" relative="1" as="geometry">
            <mxPoint x="930" y="-553" as="sourcePoint" />
            <mxPoint x="831" y="-230.25" as="targetPoint" />
          </mxGeometry>
        </mxCell>
        <mxCell id="PaUmiDtv0SXfTeHNfYGQ-95" value="" style="endArrow=none;html=1;rounded=0;exitX=0;exitY=1;exitDx=0;exitDy=0;entryX=0.5;entryY=0;entryDx=0;entryDy=0;" edge="1" parent="1" source="PaUmiDtv0SXfTeHNfYGQ-93" target="ZA4WyWoLpMxVYpmelZ8A-596">
          <mxGeometry width="50" height="50" relative="1" as="geometry">
            <mxPoint x="970.0700000000006" y="-623.7340000000002" as="sourcePoint" />
            <mxPoint x="940" y="-550" as="targetPoint" />
          </mxGeometry>
        </mxCell>
        <mxCell id="PaUmiDtv0SXfTeHNfYGQ-96" value="&lt;font color=&quot;#ffffff&quot;&gt;&lt;span style=&quot;font-size: 15px;&quot;&gt;quantity&lt;/span&gt;&lt;/font&gt;" style="ellipse;whiteSpace=wrap;html=1;fillColor=#e3c800;fontColor=#000000;strokeColor=#B09500;" vertex="1" parent="1">
          <mxGeometry x="730" y="-623" width="70" height="70" as="geometry" />
        </mxCell>
        <mxCell id="PaUmiDtv0SXfTeHNfYGQ-97" value="" style="endArrow=none;html=1;rounded=0;exitX=1;exitY=0.5;exitDx=0;exitDy=0;entryX=0.5;entryY=0;entryDx=0;entryDy=0;" edge="1" parent="1" source="PaUmiDtv0SXfTeHNfYGQ-96" target="ZA4WyWoLpMxVYpmelZ8A-596">
          <mxGeometry width="50" height="50" relative="1" as="geometry">
            <mxPoint x="730.0700000000006" y="-576.7340000000002" as="sourcePoint" />
            <mxPoint x="695" y="-503" as="targetPoint" />
          </mxGeometry>
        </mxCell>
        <mxCell id="PaUmiDtv0SXfTeHNfYGQ-99" value="&lt;font color=&quot;#ffffff&quot;&gt;&lt;span style=&quot;font-size: 15px;&quot;&gt;user_id&lt;/span&gt;&lt;/font&gt;" style="ellipse;whiteSpace=wrap;html=1;fillColor=#e3c800;fontColor=#000000;strokeColor=#B09500;" vertex="1" parent="1">
          <mxGeometry x="620" y="-160" width="70" height="70" as="geometry" />
        </mxCell>
        <mxCell id="PaUmiDtv0SXfTeHNfYGQ-100" value="" style="endArrow=none;html=1;rounded=0;exitX=1;exitY=0.5;exitDx=0;exitDy=0;entryX=0;entryY=0.5;entryDx=0;entryDy=0;" edge="1" parent="1" target="PaUmiDtv0SXfTeHNfYGQ-99" source="PaUmiDtv0SXfTeHNfYGQ-48">
          <mxGeometry width="50" height="50" relative="1" as="geometry">
            <mxPoint x="565" y="-148" as="sourcePoint" />
            <mxPoint x="740" y="-290" as="targetPoint" />
          </mxGeometry>
        </mxCell>
        <mxCell id="PaUmiDtv0SXfTeHNfYGQ-101" value="&lt;font style=&quot;font-size: 15px; color: rgb(255, 255, 255);&quot;&gt;address&lt;/font&gt;" style="ellipse;whiteSpace=wrap;html=1;fillColor=#e3c800;fontColor=#000000;strokeColor=#B09500;" vertex="1" parent="1">
          <mxGeometry x="-50" y="-513" width="70" height="70" as="geometry" />
        </mxCell>
        <mxCell id="PaUmiDtv0SXfTeHNfYGQ-102" value="" style="endArrow=none;html=1;rounded=0;entryX=0.974;entryY=0.371;entryDx=0;entryDy=0;entryPerimeter=0;exitX=0;exitY=0.5;exitDx=0;exitDy=0;" edge="1" parent="1" target="PaUmiDtv0SXfTeHNfYGQ-101" source="PaUmiDtv0SXfTeHNfYGQ-25">
          <mxGeometry width="50" height="50" relative="1" as="geometry">
            <mxPoint x="90" y="-480" as="sourcePoint" />
            <mxPoint x="-28" y="-199" as="targetPoint" />
          </mxGeometry>
        </mxCell>
        <mxCell id="PaUmiDtv0SXfTeHNfYGQ-103" value="&lt;font color=&quot;#ffffff&quot;&gt;&lt;span style=&quot;font-size: 15px;&quot;&gt;quantity&lt;/span&gt;&lt;/font&gt;" style="ellipse;whiteSpace=wrap;html=1;fillColor=#e3c800;fontColor=#000000;strokeColor=#B09500;" vertex="1" parent="1">
          <mxGeometry x="535" y="-283" width="70" height="70" as="geometry" />
        </mxCell>
        <mxCell id="PaUmiDtv0SXfTeHNfYGQ-104" value="&lt;font color=&quot;#ffffff&quot;&gt;&lt;span style=&quot;font-size: 15px;&quot;&gt;product&lt;/span&gt;&lt;/font&gt;" style="ellipse;whiteSpace=wrap;html=1;fillColor=#e3c800;fontColor=#000000;strokeColor=#B09500;direction=south;" vertex="1" parent="1">
          <mxGeometry x="435" y="-283" width="70" height="70" as="geometry" />
        </mxCell>
        <mxCell id="PaUmiDtv0SXfTeHNfYGQ-105" value="" style="endArrow=none;html=1;rounded=0;exitX=0.5;exitY=1;exitDx=0;exitDy=0;entryX=0.5;entryY=0;entryDx=0;entryDy=0;" edge="1" parent="1" target="PaUmiDtv0SXfTeHNfYGQ-103" source="PaUmiDtv0SXfTeHNfYGQ-38">
          <mxGeometry width="50" height="50" relative="1" as="geometry">
            <mxPoint x="450" y="-248" as="sourcePoint" />
            <mxPoint x="580" y="-260" as="targetPoint" />
          </mxGeometry>
        </mxCell>
        <mxCell id="PaUmiDtv0SXfTeHNfYGQ-106" value="" style="endArrow=none;html=1;rounded=0;entryX=0;entryY=0.5;entryDx=0;entryDy=0;exitX=0.5;exitY=1;exitDx=0;exitDy=0;" edge="1" parent="1" target="PaUmiDtv0SXfTeHNfYGQ-104" source="PaUmiDtv0SXfTeHNfYGQ-38">
          <mxGeometry width="50" height="50" relative="1" as="geometry">
            <mxPoint x="450" y="-248" as="sourcePoint" />
            <mxPoint x="637" y="-137" as="targetPoint" />
          </mxGeometry>
        </mxCell>
        <mxCell id="PaUmiDtv0SXfTeHNfYGQ-107" value="&lt;font color=&quot;#ffffff&quot;&gt;&lt;span style=&quot;font-size: 15px;&quot;&gt;user_id&lt;/span&gt;&lt;/font&gt;" style="ellipse;whiteSpace=wrap;html=1;fillColor=#e3c800;fontColor=#000000;strokeColor=#B09500;" vertex="1" parent="1">
          <mxGeometry x="630" y="-283" width="70" height="70" as="geometry" />
        </mxCell>
        <mxCell id="PaUmiDtv0SXfTeHNfYGQ-108" value="" style="endArrow=none;html=1;rounded=0;exitX=0.5;exitY=1;exitDx=0;exitDy=0;entryX=0.5;entryY=0;entryDx=0;entryDy=0;" edge="1" parent="1" target="PaUmiDtv0SXfTeHNfYGQ-107" source="PaUmiDtv0SXfTeHNfYGQ-38">
          <mxGeometry width="50" height="50" relative="1" as="geometry">
            <mxPoint x="450" y="-248" as="sourcePoint" />
            <mxPoint x="625" y="-480" as="targetPoint" />
          </mxGeometry>
        </mxCell>
        <mxCell id="PaUmiDtv0SXfTeHNfYGQ-112" value="&lt;font style=&quot;font-size: 15px; color: rgb(255, 255, 255);&quot;&gt;status&lt;/font&gt;" style="ellipse;whiteSpace=wrap;html=1;fillColor=#e3c800;fontColor=#000000;strokeColor=#B09500;" vertex="1" parent="1">
          <mxGeometry x="205" y="-1080" width="70" height="70" as="geometry" />
        </mxCell>
        <mxCell id="PaUmiDtv0SXfTeHNfYGQ-113" value="" style="endArrow=none;html=1;rounded=0;exitX=0.5;exitY=0;exitDx=0;exitDy=0;" edge="1" parent="1" target="PaUmiDtv0SXfTeHNfYGQ-112" source="PaUmiDtv0SXfTeHNfYGQ-21">
          <mxGeometry width="50" height="50" relative="1" as="geometry">
            <mxPoint x="195" y="-997" as="sourcePoint" />
            <mxPoint x="91" y="-677.25" as="targetPoint" />
          </mxGeometry>
        </mxCell>
        <mxCell id="PaUmiDtv0SXfTeHNfYGQ-114" value="&lt;font color=&quot;#ffffff&quot;&gt;&lt;span style=&quot;font-size: 15px;&quot;&gt;method&lt;/span&gt;&lt;/font&gt;" style="ellipse;whiteSpace=wrap;html=1;fillColor=#e3c800;fontColor=#000000;strokeColor=#B09500;" vertex="1" parent="1">
          <mxGeometry x="80" y="-1080" width="70" height="70" as="geometry" />
        </mxCell>
        <mxCell id="PaUmiDtv0SXfTeHNfYGQ-115" value="" style="endArrow=none;html=1;rounded=0;exitX=1;exitY=1;exitDx=0;exitDy=0;entryX=0.5;entryY=0;entryDx=0;entryDy=0;" edge="1" parent="1" source="PaUmiDtv0SXfTeHNfYGQ-114" target="PaUmiDtv0SXfTeHNfYGQ-21">
          <mxGeometry width="50" height="50" relative="1" as="geometry">
            <mxPoint x="-9.929999999999382" y="-1023.7340000000002" as="sourcePoint" />
            <mxPoint x="195" y="-997" as="targetPoint" />
          </mxGeometry>
        </mxCell>
        <mxCell id="PaUmiDtv0SXfTeHNfYGQ-116" value="&lt;font style=&quot;font-size: 15px; color: rgb(255, 255, 255);&quot;&gt;status&lt;/font&gt;" style="ellipse;whiteSpace=wrap;html=1;fillColor=#e3c800;fontColor=#000000;strokeColor=#B09500;" vertex="1" parent="1">
          <mxGeometry x="580" y="-1090" width="70" height="70" as="geometry" />
        </mxCell>
        <mxCell id="PaUmiDtv0SXfTeHNfYGQ-117" value="" style="endArrow=none;html=1;rounded=0;exitX=0.5;exitY=0;exitDx=0;exitDy=0;" edge="1" parent="1" target="PaUmiDtv0SXfTeHNfYGQ-116" source="PaUmiDtv0SXfTeHNfYGQ-15">
          <mxGeometry width="50" height="50" relative="1" as="geometry">
            <mxPoint x="672.5" y="-1017" as="sourcePoint" />
            <mxPoint x="568.5" y="-697.25" as="targetPoint" />
          </mxGeometry>
        </mxCell>
        <mxCell id="PaUmiDtv0SXfTeHNfYGQ-118" value="&lt;font color=&quot;#ffffff&quot;&gt;&lt;span style=&quot;font-size: 15px;&quot;&gt;total_price&lt;/span&gt;&lt;/font&gt;" style="ellipse;whiteSpace=wrap;html=1;fillColor=#e3c800;fontColor=#000000;strokeColor=#B09500;" vertex="1" parent="1">
          <mxGeometry x="467.5" y="-1090" width="70" height="70" as="geometry" />
        </mxCell>
        <mxCell id="PaUmiDtv0SXfTeHNfYGQ-119" value="" style="endArrow=none;html=1;rounded=0;exitX=1;exitY=1;exitDx=0;exitDy=0;entryX=0.5;entryY=0;entryDx=0;entryDy=0;" edge="1" parent="1" source="PaUmiDtv0SXfTeHNfYGQ-118" target="PaUmiDtv0SXfTeHNfYGQ-15">
          <mxGeometry width="50" height="50" relative="1" as="geometry">
            <mxPoint x="467.5700000000006" y="-1043.7340000000002" as="sourcePoint" />
            <mxPoint x="672.5" y="-1017" as="targetPoint" />
          </mxGeometry>
        </mxCell>
        <mxCell id="PaUmiDtv0SXfTeHNfYGQ-124" value="&lt;font style=&quot;font-size: 15px; color: rgb(255, 255, 255);&quot;&gt;price&lt;/font&gt;" style="ellipse;whiteSpace=wrap;html=1;fillColor=#e3c800;fontColor=#000000;strokeColor=#B09500;" vertex="1" parent="1">
          <mxGeometry x="956.25" y="-1090" width="70" height="70" as="geometry" />
        </mxCell>
        <mxCell id="PaUmiDtv0SXfTeHNfYGQ-125" value="" style="endArrow=none;html=1;rounded=0;exitX=0.5;exitY=0;exitDx=0;exitDy=0;" edge="1" parent="1" target="PaUmiDtv0SXfTeHNfYGQ-124" source="PaUmiDtv0SXfTeHNfYGQ-9">
          <mxGeometry width="50" height="50" relative="1" as="geometry">
            <mxPoint x="940" y="-980" as="sourcePoint" />
            <mxPoint x="944.75" y="-697.25" as="targetPoint" />
          </mxGeometry>
        </mxCell>
        <mxCell id="PaUmiDtv0SXfTeHNfYGQ-126" value="&lt;font color=&quot;#ffffff&quot;&gt;&lt;span style=&quot;font-size: 15px;&quot;&gt;quantity&lt;/span&gt;&lt;/font&gt;" style="ellipse;whiteSpace=wrap;html=1;fillColor=#e3c800;fontColor=#000000;strokeColor=#B09500;" vertex="1" parent="1">
          <mxGeometry x="843.75" y="-1090" width="70" height="70" as="geometry" />
        </mxCell>
        <mxCell id="PaUmiDtv0SXfTeHNfYGQ-127" value="" style="endArrow=none;html=1;rounded=0;exitX=1;exitY=1;exitDx=0;exitDy=0;entryX=0.5;entryY=0;entryDx=0;entryDy=0;" edge="1" parent="1" source="PaUmiDtv0SXfTeHNfYGQ-126" target="PaUmiDtv0SXfTeHNfYGQ-9">
          <mxGeometry width="50" height="50" relative="1" as="geometry">
            <mxPoint x="843.8200000000006" y="-1043.7340000000002" as="sourcePoint" />
            <mxPoint x="936.25" y="-980" as="targetPoint" />
          </mxGeometry>
        </mxCell>
      </root>
    </mxGraphModel>
  </diagram>
</mxfile>
